<svg  viewBox="0 0 211 211" fill="none" xmlns="http://www.w3.org/2000/svg">
<g clip-path="url(#clip0_6304_6888)">
<path d="M105.19 210.38C163.285 210.38 210.38 163.285 210.38 105.19C210.38 47.0952 163.285 0 105.19 0C47.0952 0 0 47.0952 0 105.19C0 163.285 47.0952 210.38 105.19 210.38Z" fill="#851296"/>
<path d="M105.19 201.57C158.419 201.57 201.57 158.419 201.57 105.19C201.57 51.9609 158.419 8.81006 105.19 8.81006C51.9604 8.81006 8.80957 51.9609 8.80957 105.19C8.80957 158.419 51.9604 201.57 105.19 201.57Z" fill="white"/>
<path d="M154.5 41.83C134.53 25.43 107.06 24.47 82.9697 31.11C81.2397 31.5 79.0897 32.24 79.8597 34.74C82.3197 41.6 107.08 25.31 105.85 36.38C107.29 48.49 104.41 167.55 105.81 172.86C105.78 177.7 105.32 178.33 100.42 177.3C94.2597 177.39 79.3797 168.78 75.7197 173.36C78.2797 183.12 108.05 183.76 117.3 182.79C186.38 177.09 212.26 80.82 154.49 41.82L154.5 41.83ZM176.41 102.16C173.2 102.21 169.98 102.17 166.76 102.17C163.24 102.16 159.72 102.09 156.2 102.18C153.87 102.24 152.58 101.32 153.05 98.94C154.39 92.21 155.81 85.49 157.32 78.79C157.77 76.76 158.99 76.05 161.04 77.27C169.22 82.14 176.33 88.02 179.77 97.3C181.3 101.43 180.82 102.09 176.41 102.16ZM161.66 68.85C162.76 66.34 164.17 63.97 165.87 60.8C171.24 67.16 174.5 73.74 177.15 81.6C171.67 77.91 166.89 74.77 162.23 71.45C161.67 71.05 161.37 69.53 161.67 68.85H161.66ZM111.52 32.28C129.69 33.32 145.36 40.16 158.83 52.36C161.62 54.88 162.3 56.98 159.9 60.07C158.06 62.45 157.12 66.35 154.83 67.32C152.79 68.18 149.49 65.72 146.66 65.14C137.23 63.2 127.77 61.4 118.31 59.63C116.05 59.21 113.74 59.09 111.46 58.83C111.48 49.98 111.5 41.14 111.52 32.29V32.28ZM111.41 83C111.41 78.09 111.47 73.17 111.38 68.26C111.34 65.83 111.95 64.59 114.76 64.75C126.48 65.41 137.85 67.61 148.92 71.59C152.13 72.74 153.09 73.95 152.04 77.58C150.1 84.33 148.73 91.28 147.62 98.23C147.16 101.06 146.43 102.25 143.45 102.21C134.09 102.08 124.72 102.08 115.36 102.21C112.36 102.25 111.27 101.18 111.37 98.2C111.53 93.14 111.42 88.07 111.42 83H111.41ZM111.41 126.36C111.41 121.46 111.49 116.55 111.38 111.65C111.32 109.03 112.07 107.7 114.98 107.73C124.63 107.83 134.28 107.79 143.93 107.75C146.11 107.75 147.09 108.46 147.52 110.82C148.91 118.48 150.51 126.11 152.34 133.68C152.9 136 152.46 137.06 150.35 137.87C138.96 142.28 127.14 144.54 114.99 145.32C112.03 145.51 111.32 144.16 111.39 141.52C111.51 136.47 111.43 131.41 111.43 126.35L111.41 126.36ZM156.07 160.04C144.74 169.86 131.51 175.34 116.75 177.35C111.77 178.03 111.46 177.74 111.41 172.85C111.38 169.94 111.41 167.03 111.41 164.12H111.43C111.43 160.75 111.48 157.38 111.41 154.02C111.37 151.94 112.22 151 114.36 150.89C127.6 150.23 140.46 147.72 152.81 142.83C155.08 141.93 156.24 142.68 157.06 144.74C157.45 145.73 157.99 146.67 158.49 147.61C161.03 152.33 160.226 156.477 156.08 160.05L156.07 160.04ZM167.1 147.72C166.88 148.01 165.32 147.84 165.06 147.45C163.8 145.54 162.59 143.55 161.78 141.43C161.48 140.63 161.99 138.96 162.69 138.43C167.17 135.09 171.81 131.95 177.28 128.14C174.82 135.83 171.47 142.04 167.11 147.72H167.1ZM180.17 111.79C178.23 117.42 174.95 122.19 170.46 126.03C167.68 128.4 164.58 130.41 161.59 132.54C159.61 133.94 157.91 134.19 157.28 131.17C155.89 124.6 154.47 118.04 153.1 111.47C152.51 108.61 153.9 107.63 156.64 107.74C160 107.87 163.37 107.77 166.74 107.77C170.26 107.77 173.78 107.85 177.29 107.76C180.37 107.68 181.08 109.16 180.17 111.8V111.79Z" fill="#851296"/>
<path d="M24.2097 93.27C24.3497 97 26.3597 98.28 30.7597 98.24C35.5497 98.2 36.3997 97.52 37.0297 93.22C37.1497 92.39 37.0297 91.36 37.2697 90.77C37.6697 89.77 39.2097 89.13 40.1597 89.18C41.0697 89.23 42.4397 90.26 42.6797 91.12C43.1097 92.69 42.8697 94.45 42.8697 96.13C42.8697 114.63 42.8897 133.12 42.8697 151.62C42.8697 154.82 42.6897 157.89 46.1697 159.82C47.0997 160.34 47.5297 162.18 47.7297 163.49C48.0197 165.34 47.6597 167.31 48.0397 169.13C48.2597 170.18 49.3297 171.81 50.1097 171.86C54.0497 172.13 58.0497 172.3 61.9597 171.86C64.3897 171.58 64.6997 169.12 64.8397 166.89C65.2797 159.89 65.3297 159.89 72.0097 159.89C79.8097 159.89 87.5997 159.89 95.3997 159.89V149.49C90.3697 149.49 85.3297 149.56 80.2997 149.42C79.4497 149.4 77.7997 148.91 77.7997 147.93C77.7997 146.95 79.4397 146.42 80.2697 146.41C85.3097 146.36 90.3597 146.33 95.3997 146.33V144.49C90.9197 144.49 86.4397 144.49 81.9597 144.49C81.1297 144.49 80.2297 144.55 79.4997 144.25C78.8597 143.98 77.8597 143.47 77.8797 142.72C77.8897 142.12 78.6997 141.71 79.2197 141.54C79.9897 141.29 80.8597 141.27 81.6797 141.26C86.2497 141.24 90.8297 141.25 95.3997 141.24V139.53C90.3597 139.53 85.3197 139.59 80.2897 139.46C79.4397 139.44 77.7697 138.91 77.7897 137.93C77.8097 136.95 79.4897 136.5 80.3497 136.49C85.3697 136.43 90.3797 136.4 95.3997 136.4V134.62C91.1997 134.62 86.9997 134.62 82.8097 134.59C81.0097 134.58 77.9897 134.52 78.0097 132.94C78.0297 131.01 80.7897 131.16 82.5197 131.12C86.7197 131.02 95.3097 131.09 95.3997 131.09V116.22C81.8897 116.13 68.4097 114.81 54.9297 113.35C52.0097 113.04 50.3097 111.61 49.9797 108.67C49.8397 107.42 49.6997 106.17 49.6897 104.92C49.6697 93.81 49.6297 82.71 49.6897 71.6C49.7197 66.68 49.9097 66.08 54.6997 65.26C61.6897 64.07 68.7597 63.26 75.8397 62.66C76.2697 62.62 79.6297 62.53 80.8797 62.53C85.7197 62.53 90.5497 62.68 95.3897 62.76V46.6C93.0997 46.62 90.8097 46.63 88.5297 46.65C85.5697 46.65 77.1397 46.26 75.8797 46.25C72.0397 46.22 66.0197 46.86 65.9097 50.63C65.8197 53.82 65.4297 55.04 61.9697 55.3C57.4097 55.65 52.8497 56.69 48.4097 57.88C43.4397 59.21 42.8397 60.29 42.7497 65.41C42.7197 67.09 42.9397 68.8 42.6797 70.44C42.4797 71.71 41.8797 73.78 41.1597 73.92C39.7897 74.18 37.4997 73.79 36.8497 72.82C34.7497 69.71 31.7897 70.14 28.9297 70.27C25.6397 70.42 24.3397 71.6 24.2197 74.97C24.0097 81.06 23.9697 87.17 24.1997 93.25L24.2097 93.27ZM48.3797 145.8C48.4297 142.63 50.0097 140.67 53.2397 140.29C55.2997 140.04 57.4197 140.24 59.5097 140.24C59.5097 140.28 64.5697 140.08 67.0197 140.44C70.1897 140.9 71.0097 142.31 70.9197 145.79C70.8297 149.08 69.7597 150.72 66.6697 150.9C62.0797 151.17 57.4497 151.18 52.8697 150.88C49.8997 150.69 48.3297 148.53 48.3697 145.81L48.3797 145.8ZM36.7997 81.42C36.7597 79.23 37.2397 77.85 39.8597 77.87C42.4697 77.89 43.0597 79.27 42.8797 81.24C42.8997 84.54 42.4497 85.18 40.1197 85.34C37.4797 85.52 36.8597 84.69 36.7997 81.43V81.42Z" fill="#851296"/>
</g>
<defs>
<clipPath id="clip0_6304_6888">
<rect width="210.38" height="210.38" fill="white"/>
</clipPath>
</defs>
</svg>
