<svg viewBox="0 0 88 89" fill="none" xmlns="http://www.w3.org/2000/svg">
<path d="M44 88.3599C68.3005 88.3599 88 68.6604 88 44.3599C88 20.0593 68.3005 0.359863 44 0.359863C19.6995 0.359863 0 20.0593 0 44.3599C0 68.6604 19.6995 88.3599 44 88.3599Z" fill="white"/>
<path d="M43.9994 84.6746C66.2647 84.6746 84.3143 66.6251 84.3143 44.3598C84.3143 22.0945 66.2647 4.04492 43.9994 4.04492C21.7341 4.04492 3.68457 22.0945 3.68457 44.3598C3.68457 66.6251 21.7341 84.6746 43.9994 84.6746Z" fill="#2C003A"/>
<path d="M64.6248 17.8571C56.2716 10.9972 44.7811 10.5956 34.7045 13.3731C33.9808 13.5362 33.0815 13.8457 33.4036 14.8915C34.4326 17.7609 44.7895 10.947 44.275 15.5774C44.8773 20.6429 43.6726 70.4446 44.2582 72.6658C44.2457 74.6903 44.0533 74.9538 42.0037 74.523C39.427 74.5606 33.2028 70.9591 31.6719 72.8749C32.7427 76.9574 45.1952 77.2251 49.0644 76.8194C77.9599 74.4351 88.7853 34.1663 64.6206 17.8529L64.6248 17.8571ZM73.7896 43.0926C72.4469 43.1135 71.1 43.0968 69.7531 43.0968C68.2807 43.0926 66.8083 43.0633 65.3359 43.101C64.3613 43.1261 63.8217 42.7412 64.0183 41.7457C64.5788 38.9306 65.1728 36.1197 65.8044 33.3172C65.9926 32.468 66.5029 32.171 67.3604 32.6814C70.7821 34.7184 73.7561 37.178 75.195 41.0597C75.835 42.7873 75.6342 43.0633 73.7896 43.0926ZM67.6198 29.1593C68.0799 28.1094 68.6697 27.1181 69.3808 25.7921C71.627 28.4524 72.9906 31.2048 74.0991 34.4926C71.8069 32.9491 69.8074 31.6356 67.8582 30.2469C67.624 30.0796 67.4985 29.4438 67.624 29.1593H67.6198ZM46.6467 13.8625C54.247 14.2975 60.8016 17.1586 66.436 22.2617C67.603 23.3158 67.8875 24.1942 66.8836 25.4868C66.1139 26.4823 65.7207 28.1136 64.7629 28.5194C63.9095 28.8791 62.5292 27.8501 61.3454 27.6075C57.4009 26.796 53.4439 26.0431 49.4869 25.3027C48.5415 25.127 47.5753 25.0768 46.6216 24.9681C46.6299 21.2662 46.6383 17.5685 46.6467 13.8666V13.8625ZM46.6007 35.0782C46.6007 33.0244 46.6258 30.9664 46.5881 28.9126C46.5714 27.8961 46.8265 27.3774 48.0019 27.4444C52.9043 27.7204 57.6603 28.6407 62.2908 30.3055C63.6335 30.7865 64.035 31.2926 63.5958 32.811C62.7843 35.6345 62.2113 38.5416 61.747 41.4487C61.5546 42.6325 61.2492 43.1303 60.0027 43.1135C56.0875 43.0591 52.1681 43.0591 48.2529 43.1135C46.998 43.1303 46.5421 42.6827 46.5839 41.4362C46.6509 39.3196 46.6049 37.1989 46.6049 35.0782H46.6007ZM46.6007 53.2152C46.6007 51.1656 46.6341 49.1118 46.5881 47.0622C46.563 45.9663 46.8767 45.4099 48.094 45.4225C52.1305 45.4643 56.167 45.4476 60.2035 45.4309C61.1154 45.4309 61.5253 45.7278 61.7051 46.715C62.2866 49.9191 62.9558 53.1107 63.7213 56.2771C63.9556 57.2476 63.7715 57.691 62.8889 58.0298C58.1246 59.8744 53.1804 60.8198 48.0982 61.146C46.86 61.2255 46.563 60.6608 46.5923 59.5565C46.6425 57.4442 46.609 55.3276 46.609 53.2111L46.6007 53.2152ZM65.2815 67.3033C60.5423 71.4109 55.0083 73.7031 48.8343 74.5439C46.7513 74.8283 46.6216 74.707 46.6007 72.6616C46.5881 71.4444 46.6007 70.2271 46.6007 69.0099H46.609C46.609 67.6003 46.63 66.1906 46.6007 64.7852C46.5839 63.9151 46.9395 63.5219 47.8346 63.4759C53.3728 63.1998 58.752 62.1499 63.9179 60.1045C64.8674 59.728 65.3526 60.0418 65.6956 60.9034C65.8588 61.3175 66.0847 61.7107 66.2938 62.1039C67.3563 64.0783 67.0202 65.8128 65.2857 67.3075L65.2815 67.3033ZM69.8953 62.1499C69.8033 62.2712 69.1507 62.2001 69.042 62.037C68.5149 61.2381 68.0088 60.4057 67.67 59.5189C67.5445 59.1842 67.7578 58.4857 68.0506 58.264C69.9246 56.8669 71.8654 55.5535 74.1535 53.9598C73.1245 57.1765 71.7232 59.774 69.8995 62.1499H69.8953ZM75.3623 47.1208C74.5509 49.4757 73.1789 51.471 71.3007 53.0772C70.1379 54.0686 68.8412 54.9093 67.5905 55.8003C66.7623 56.3859 66.0512 56.4905 65.7877 55.2272C65.2062 52.4791 64.6123 49.7351 64.0392 46.9869C63.7924 45.7906 64.3738 45.3807 65.52 45.4267C66.9254 45.481 68.3351 45.4392 69.7447 45.4392C71.2171 45.4392 72.6895 45.4727 74.1577 45.435C75.446 45.4016 75.743 46.0206 75.3623 47.1249V47.1208Z" fill="white"/>
<path d="M10.126 39.374C10.1845 40.9342 11.0253 41.4696 12.8658 41.4529C14.8694 41.4362 15.2249 41.1517 15.4885 39.3531C15.5387 39.0059 15.4885 38.5751 15.5889 38.3283C15.7562 37.91 16.4003 37.6423 16.7977 37.6632C17.1784 37.6841 17.7514 38.115 17.8518 38.4747C18.0317 39.1314 17.9313 39.8676 17.9313 40.5703C17.9313 48.3087 17.9396 56.0429 17.9313 63.7813C17.9313 65.1198 17.856 66.404 19.3116 67.2113C19.7007 67.4288 19.8805 68.1984 19.9642 68.7464C20.0855 69.5202 19.9349 70.3443 20.0938 71.1055C20.1859 71.5447 20.6334 72.2266 20.9597 72.2475C22.6078 72.3604 24.2809 72.4315 25.9165 72.2475C26.9329 72.1304 27.0626 71.1014 27.1211 70.1686C27.3052 67.2405 27.3261 67.2405 30.1203 67.2405C33.3829 67.2405 36.6414 67.2405 39.9041 67.2405V62.8903C37.8001 62.8903 35.6919 62.9196 33.5879 62.861C33.2324 62.8527 32.5422 62.6477 32.5422 62.2378C32.5422 61.8279 33.2282 61.6062 33.5754 61.602C35.6835 61.5811 37.7959 61.5685 39.9041 61.5685V60.7989C38.0302 60.7989 36.1562 60.7989 34.2823 60.7989C33.9351 60.7989 33.5586 60.824 33.2533 60.6985C32.9856 60.5855 32.5673 60.3722 32.5756 60.0585C32.5798 59.8075 32.9186 59.636 33.1362 59.5649C33.4582 59.4603 33.8221 59.452 34.1651 59.4478C36.0767 59.4394 37.9925 59.4436 39.9041 59.4394V58.7241C37.7959 58.7241 35.6877 58.7492 33.5837 58.6949C33.2282 58.6865 32.5296 58.4648 32.538 58.0549C32.5464 57.6449 33.2491 57.4567 33.6088 57.4525C35.7086 57.4274 37.8043 57.4149 39.9041 57.4149V56.6703C38.1473 56.6703 36.3905 56.6703 34.6378 56.6578C33.8849 56.6536 32.6217 56.6285 32.63 55.9676C32.6384 55.1603 33.7929 55.223 34.5165 55.2063C36.2733 55.1645 39.8664 55.1938 39.9041 55.1938V48.9738C34.253 48.9361 28.6144 48.384 22.9759 47.7733C21.7545 47.6436 21.0434 47.0455 20.9053 45.8157C20.8468 45.2928 20.7882 44.77 20.784 44.2471C20.7757 39.5999 20.7589 34.9569 20.784 30.3096C20.7966 28.2517 20.876 28.0007 22.8797 27.6577C25.8035 27.1599 28.7608 26.8211 31.7223 26.5701C31.9022 26.5534 33.3076 26.5157 33.8305 26.5157C35.855 26.5157 37.8754 26.5785 39.8999 26.612V19.8524C38.942 19.8607 37.9841 19.8649 37.0304 19.8733C35.7923 19.8733 32.2661 19.7102 31.7391 19.706C30.1328 19.6934 27.6147 19.9611 27.5687 21.5381C27.5311 22.8724 27.3679 23.3828 25.9206 23.4915C24.0132 23.6379 22.1058 24.0729 20.2486 24.5707C18.1697 25.127 17.9187 25.5788 17.8811 27.7204C17.8685 28.4232 17.9606 29.1384 17.8518 29.8244C17.7681 30.3557 17.5172 31.2215 17.216 31.2801C16.6429 31.3888 15.6851 31.2257 15.4132 30.82C14.5348 29.5191 13.2966 29.6989 12.1003 29.7533C10.7241 29.8161 10.1804 30.3096 10.1302 31.7193C10.0423 34.2667 10.0256 36.8224 10.1218 39.3656L10.126 39.374ZM20.2361 61.3468C20.257 60.0208 20.9179 59.201 22.269 59.042C23.1306 58.9375 24.0174 59.0211 24.8916 59.0211C24.8916 59.0379 27.0082 58.9542 28.033 59.1048C29.359 59.2972 29.702 59.887 29.6643 61.3426C29.6267 62.7188 29.1791 63.4048 27.8866 63.4801C25.9666 63.593 24.03 63.5972 22.1142 63.4717C20.8719 63.3923 20.2151 62.4888 20.2319 61.351L20.2361 61.3468ZM15.3923 34.4173C15.3755 33.5012 15.5763 32.924 16.6722 32.9323C17.764 32.9407 18.0108 33.5179 17.9355 34.342C17.9438 35.7223 17.7556 35.99 16.781 36.057C15.6767 36.1323 15.4174 35.7851 15.3923 34.4214V34.4173Z" fill="white"/>
</svg>
